HIERARCHY
ROOT Hips
{
	OFFSET -3.958830 18.904000 13.208200
	CHANNELS 6 Xposition Yposition Zposition Zrotation Yrotation Xrotation 
	JOINT LHipJoint
	{
		OFFSET 0.000000 0.000000 0.000000
		CHANNELS 3 Zrotation Yrotation Xrotation
		JOINT LeftUpLeg
		{
			OFFSET 1.800000 -1.400000 0.085000
			CHANNELS 3 Zrotation Yrotation Xrotation
			JOINT LeftLeg
			{
				OFFSET 2.215000 -6.000000 0.000000
				CHANNELS 3 Zrotation Yrotation Xrotation
				JOINT LeftFoot
				{
					OFFSET 2.500000 -6.900000 0.000000
					CHANNELS 3 Zrotation Yrotation Xrotation
					JOINT LeftToeBase
					{
						OFFSET 0.200000 -0.500000 1.950000
						CHANNELS 3 Zrotation Yrotation Xrotation
						End Site
						{
							OFFSET 0.000000 0.000000 0.000000
						}
					}
				}
			}
		}
	}
	JOINT RHipJoint
	{
		OFFSET 0.000000 0.000000 0.000000
		CHANNELS 3 Zrotation Yrotation Xrotation
		JOINT RightUpLeg
		{
			OFFSET -1.800000 -1.400000 0.085000
			CHANNELS 3 Zrotation Yrotation Xrotation
			JOINT RightLeg
			{
				OFFSET -2.215000 -6.000000 0.000000
				CHANNELS 3 Zrotation Yrotation Xrotation
				JOINT RightFoot
				{
					OFFSET -2.500000 -6.900000 0.000000
					CHANNELS 3 Zrotation Yrotation Xrotation
					JOINT RightToeBase
					{
						OFFSET -0.200000 -0.500000 1.950000
						CHANNELS 3 Zrotation Yrotation Xrotation
						End Site
						{
							OFFSET 0.000000 0.000000 0.000000
						}
					}
				}
			}
		}
	}
	JOINT LowerBack
	{
		OFFSET 0.000000 0.000000 0.000000
		CHANNELS 3 Zrotation Yrotation Xrotation
		JOINT Spine
		{
			OFFSET -0.087000 1.940000 -0.288900
			CHANNELS 3 Zrotation Yrotation Xrotation
			JOINT Spine1
			{
				OFFSET 0.000000 1.950000 0.060000
				CHANNELS 3 Zrotation Yrotation Xrotation
				JOINT Neck
				{
					OFFSET 0.000000 0.000000 0.000000
					CHANNELS 3 Zrotation Yrotation Xrotation
					JOINT Neck1
					{
						OFFSET 0.000000 1.600000 0.340000
						CHANNELS 3 Zrotation Yrotation Xrotation
						JOINT Head
						{
							OFFSET 0.000000 1.667000 -0.240000
							CHANNELS 3 Zrotation Yrotation Xrotation
							End Site
							{
								OFFSET 0.000000 0.000000 0.000000
							}
						}
					}
				}
				JOINT LeftShoulder
				{
					OFFSET 0.000000 0.000000 0.000000
					CHANNELS 3 Zrotation Yrotation Xrotation
					JOINT LeftArm
					{
						OFFSET 2.700000 1.550000 -0.730000
						CHANNELS 3 Zrotation Yrotation Xrotation
						JOINT LeftForeArm
						{
							OFFSET 5.450000 0.000000 0.000000
							CHANNELS 3 Zrotation Yrotation Xrotation
							JOINT LeftHand
							{
								OFFSET 3.450000 0.000000 0.000000
								CHANNELS 3 Zrotation Yrotation Xrotation
								JOINT LeftHandIndex1
								{
									OFFSET 0.750000 0.000000 0.000000
									CHANNELS 3 Zrotation Yrotation Xrotation
									End Site
									{
										OFFSET 0.000000 0.000000 0.000000
									}
								}
							}
						}
					}
				}
				JOINT RightShoulder
				{
					OFFSET 0.000000 0.000000 0.000000
					CHANNELS 3 Zrotation Yrotation Xrotation
					JOINT RightArm
					{
						OFFSET -2.700000 1.550000 -0.730000
						CHANNELS 3 Zrotation Yrotation Xrotation
						JOINT RightForeArm
						{
							OFFSET -5.450000 0.000000 0.000000
							CHANNELS 3 Zrotation Yrotation Xrotation
							JOINT RightHand
							{
								OFFSET -3.450000 0.000000 0.000000
								CHANNELS 3 Zrotation Yrotation Xrotation
								JOINT RightHandIndex1
								{
									OFFSET -0.750000 0.000000 0.000000
									CHANNELS 3 Zrotation Yrotation Xrotation
									End Site
									{
										OFFSET 0.000000 0.000000 0.000000
									}
								}
							}
						}
					}
				}
			}
		}
	}
}
MOTION
Frames: 10
Frame Time: 0.016667
-0.791390 16.744050 -0.242260 1.943512 -16.263188 3.559869 -14.349668 11.627058 2.806357 19.131638 -2.362914 -13.705635 -13.823988 9.442090 18.497547 -0.585358 5.652175 2.353060 0.529800 0.239340 0.750270 19.010600 -11.985416 3.270037 -19.468668 0.967621 -33.815222 6.817538 -9.323335 29.293637 -0.154890 -4.700524 2.468126 0.303510 -0.160170 -0.144540 -5.697130 3.607485 -7.454622 32.515176 -4.485184 7.924949 -4.817496 -4.707841 6.095860 4.166890 12.153605 -11.527421 32.508429 -28.233928 23.851973 1.574620 -14.404840 -11.733120 -5.622382 -2.862901 3.996979 -32.679875 8.038736 -8.871491 28.527835 -48.510522 -9.373040 -3.378959 2.846448 0.525530 -0.121410 -0.010290 -0.120590 -2.294971 -4.412704 5.133867 81.102285 15.213666 -1.752923 21.977912 41.919332 2.913264 2.133813 -1.563138 -0.305780 0.272440 -0.122390 -0.382420 
-0.794650 16.770380 -0.236050 1.871099 -16.704461 3.838426 -14.336490 11.646447 2.784668 18.749994 -2.245678 -13.042018 -13.768062 9.231696 17.696670 -0.624179 5.562672 2.398550 0.501940 0.208490 0.746820 19.005768 -12.015856 3.306418 -19.380525 1.180236 -33.547727 7.209085 -9.067993 28.071904 -0.134310 -4.510203 2.546780 0.291050 -0.145520 -0.164900 -5.698515 3.684305 -7.458114 33.053849 -4.494749 7.886110 -4.332063 -4.679737 6.082508 4.019421 11.995407 -12.215866 33.437570 -28.868882 23.187167 2.443440 -14.973680 -12.864570 -5.258024 -3.670224 4.559855 -35.405963 8.892504 -9.563310 25.407217 -45.049716 -7.596161 -3.403612 2.775443 0.568470 -0.131870 -0.000900 -0.135220 -2.580885 -3.147990 5.402689 80.865303 16.142629 -1.534771 21.124204 41.651981 2.539657 2.132783 -1.490066 -0.341300 0.323880 -0.097510 -0.392640 
-0.798990 16.785470 -0.233140 1.771753 -16.849601 4.222664 -14.322885 11.632995 2.765367 18.468167 -2.180975 -12.785414 -13.651837 9.045653 17.119016 -0.660191 5.492695 2.443358 0.469200 0.166900 0.723170 19.009725 -12.037527 3.350771 -19.409279 1.341856 -33.371708 7.771979 -8.944078 27.013348 -0.110206 -4.403496 2.599173 0.277850 -0.112960 -0.179370 -5.717488 3.795411 -7.466822 33.418823 -4.471104 7.582616 -4.011957 -4.702089 6.067258 3.853221 11.842248 -12.772798 34.054828 -29.169259 22.418923 2.993250 -15.537710 -12.980220 -4.677203 -4.400067 4.991657 -37.602364 9.377311 -10.035842 22.765950 -41.919564 -6.230839 -3.437104 2.727634 0.590260 -0.125180 -0.014870 -0.136530 -3.053640 -2.015198 5.671118 81.012302 17.139315 -1.006712 20.290646 41.144834 2.168562 2.125348 -1.451019 -0.377250 0.362050 -0.072100 -0.395480 
-0.803950 16.801500 -0.235640 1.817104 -16.814839 4.161464 -14.318133 11.656136 2.748897 18.238237 -2.113508 -12.444577 -13.483656 8.949706 16.947254 -0.678344 5.443622 2.455544 0.472820 0.173950 0.729870 19.000288 -12.057940 3.378908 -19.706908 1.377781 -32.898369 8.413502 -8.936179 26.262311 -0.116995 -4.364051 2.603552 0.281930 -0.123580 -0.178990 -5.702131 3.825391 -7.484285 33.240460 -4.399993 7.860982 -3.552571 -4.641217 5.890075 3.805122 11.632074 -13.259546 34.796777 -29.585834 22.075051 3.330640 -15.761120 -13.729850 -4.666601 -5.089582 5.237290 -38.737231 9.513842 -10.210859 21.018881 -39.671890 -5.430976 -3.445159 2.702079 0.613200 -0.138530 0.002890 -0.144360 -3.119924 -0.774268 5.894820 80.774762 18.095425 -0.535489 19.368780 40.623512 1.804007 2.129691 -1.421604 -0.380410 0.371600 -0.066390 -0.400610 
-0.808940 16.809400 -0.241400 1.779419 -16.573296 4.010057 -14.310302 11.687419 2.709671 18.054052 -2.051045 -12.230676 -13.060448 8.889424 17.214293 -0.686304 5.393800 2.460950 0.477900 0.189760 0.723820 18.996402 -12.085111 3.402680 -19.952446 1.385398 -32.342821 9.144146 -8.994812 25.634175 -0.128935 -4.360871 2.595471 0.285720 -0.138510 -0.178320 -5.702621 3.850683 -7.487416 33.045325 -4.356478 8.052505 -3.307616 -4.619364 5.911651 3.707013 11.476338 -13.571091 35.089930 -29.612658 22.220620 3.916760 -15.821260 -14.445470 -4.669539 -5.803537 5.516481 -39.639325 9.448244 -10.322842 20.595951 -38.042505 -5.148862 -3.441099 2.693154 0.627800 -0.154820 0.019770 -0.148150 -2.982587 0.259285 5.958137 80.642244 19.106280 0.039432 18.374373 40.029973 1.453692 2.139190 -1.401966 -0.373160 0.368150 -0.063700 -0.398760 
-0.814510 16.809410 -0.245880 1.666998 -15.986099 3.845059 -14.306663 11.698065 2.678240 18.035394 -2.038414 -12.196474 -12.739385 8.882967 17.559567 -0.690600 5.386982 2.457772 0.489050 0.195570 0.739090 18.996129 -12.098469 3.415359 -20.236265 1.318267 -31.832382 9.905425 -9.188038 25.367662 -0.140524 -4.427322 2.566110 0.288980 -0.149300 -0.177100 -5.707325 3.866463 -7.488089 32.711322 -4.273156 8.046523 -3.207275 -4.625356 6.023591 3.699446 11.385738 -13.712586 35.071090 -29.557185 22.508028 3.882180 -15.809830 -14.555300 -4.714464 -6.302928 5.654177 -39.702249 9.172809 -10.206137 20.417271 -37.391265 -5.054134 -3.437461 2.692486 0.630740 -0.162100 0.023760 -0.152100 -2.916955 0.915708 6.007200 80.678569 19.768566 0.520092 18.008695 39.684042 1.316156 2.147162 -1.402047 -0.368720 0.363070 -0.068490 -0.402950 
-0.820800 16.806590 -0.252930 1.351740 -15.432519 3.574448 -14.299794 11.720818 2.646889 18.222519 -2.013169 -12.305318 -12.262865 8.907106 18.170572 -0.695867 5.388277 2.437910 0.499840 0.206960 0.750760 18.998274 -12.120929 3.416479 -20.207722 1.339670 -31.404190 10.414127 -9.413717 25.599270 -0.158713 -4.515248 2.529176 0.290910 -0.174030 -0.174730 -5.719840 3.872486 -7.484248 32.508974 -4.197899 8.197491 -3.316268 -4.562638 6.234584 3.674176 11.291093 -13.763803 34.825418 -29.407560 23.378508 3.674480 -15.560080 -14.710760 -4.665482 -6.621782 5.712220 -39.540851 8.739859 -10.079986 20.899453 -37.401482 -5.219495 -3.425231 2.701031 0.636190 -0.172990 0.032740 -0.162620 -2.856857 1.317083 6.072146 81.073149 20.213867 0.756349 17.831633 39.820343 1.240255 2.151008 -1.408088 -0.357280 0.345190 -0.071490 -0.410790 
-0.828480 16.799010 -0.258370 1.012504 -14.717164 3.225000 -14.297368 11.750992 2.591682 18.386047 -1.999048 -12.556791 -11.513883 8.882538 18.998302 -0.709289 5.370171 2.416524 0.525580 0.230860 0.778900 19.002734 -12.132704 3.413942 -20.316928 1.289174 -30.949737 11.046604 -9.779169 26.057455 -0.195359 -4.662984 2.456093 0.299510 -0.216020 -0.163140 -5.734128 3.841042 -7.462300 32.025968 -4.049433 8.210710 -3.499133 -4.530890 6.722142 3.713621 11.267754 -13.749586 34.550245 -29.263164 24.694365 3.153330 -15.045370 -14.885370 -4.539746 -6.847418 5.763441 -38.897759 8.255068 -9.943856 22.145694 -38.385583 -5.754688 -3.395536 2.728105 0.646150 -0.190490 0.053130 -0.174020 -2.892236 1.382153 6.115198 81.784735 20.443267 0.878421 18.178406 40.528874 1.336206 2.153725 -1.436949 -0.337910 0.312620 -0.083260 -0.424250 
-0.834820 16.794400 -0.265470 0.473333 -14.026210 2.720769 -14.284984 11.776713 2.547800 18.833940 -1.975333 -12.738230 -10.823721 8.913426 19.886701 -0.682474 5.387201 2.395222 0.555490 0.243900 0.815760 19.012255 -12.156115 3.401685 -20.269538 1.261780 -30.200301 11.845836 -10.152492 26.394311 -0.241058 -4.807192 2.392752 0.291810 -0.264110 -0.148110 -5.770693 3.825228 -7.452035 31.765750 -3.944084 8.422211 -4.006087 -4.436984 7.264338 3.555640 11.155119 -13.767949 34.066507 -29.009931 26.913432 2.750530 -14.570480 -14.355710 -4.280929 -7.241753 5.940903 -37.707077 7.935320 -9.934525 23.709677 -40.328278 -6.581520 -3.333289 2.776951 0.653670 -0.215970 0.078260 -0.170060 -2.703552 1.631033 6.165576 82.298564 20.622876 0.885067 18.551610 40.943459 1.427826 2.176395 -1.476377 -0.309050 0.265160 -0.115770 -0.433670 
-0.844610 16.789010 -0.280160 0.031384 -13.461988 2.081106 -14.274702 11.820717 2.510683 19.169405 -1.922036 -13.040890 -10.090555 8.998647 21.075035 -0.627298 5.406553 2.377957 0.586090 0.284600 0.835390 19.017848 -12.192813 3.381652 -20.027746 1.332849 -29.683859 12.075779 -10.427270 27.278798 -0.288480 -4.947907 2.342601 0.290210 -0.302100 -0.141680 -5.795390 3.802110 -7.446018 31.074768 -3.761515 9.075799 -4.404508 -4.210526 7.652153 3.362149 11.057461 -13.673734 33.565138 -28.401394 29.197609 2.416880 -13.732060 -13.760720 -4.054857 -7.494469 5.969438 -35.611552 7.489934 -9.730702 24.844571 -42.196226 -7.264541 -3.271748 2.828334 0.639550 -0.235510 0.104660 -0.153190 -2.401470 1.803959 6.101647 82.602382 20.930075 1.040161 18.301706 40.754875 1.307435 2.207339 -1.508534 -0.268820 0.226430 -0.157690 -0.423980 
